<svg xmlns="http://www.w3.org/2000/svg" version="1.1" xmlns:xlink="http://www.w3.org/1999/xlink" xmlns:svgjs="http://svgjs.dev/svgjs" width="1000" height="1000" viewBox="0 0 1000 1000"><g transform="matrix(1,0,0,1,-0.14221556886212738,-0.14221556886229791)"><svg viewBox="0 0 334 334" data-background-color="#ffffff" preserveAspectRatio="xMidYMid meet" height="1000" width="1000" xmlns="http://www.w3.org/2000/svg" xmlns:xlink="http://www.w3.org/1999/xlink"><g id="tight-bounds" transform="matrix(1,0,0,1,0.04749999999998522,0.04750000000001364)"><svg viewBox="0 0 333.90454557049503 333.90454557049503" height="333.90454557049503" width="333.90454557049503"><g><svg></svg></g><g><svg viewBox="0 0 333.90454557049503 333.90454557049503" height="333.90454557049503" width="333.90454557049503"><g><path d="M0 166.952c0-92.205 74.747-166.952 166.952-166.952 92.205 0 166.952 74.747 166.953 166.952 0 92.205-74.747 166.952-166.953 166.953-92.205 0-166.952-74.747-166.952-166.953zM166.952 316.63c82.665 0 149.677-67.013 149.678-149.678 0-82.665-67.013-149.677-149.678-149.677-82.665 0-149.677 67.013-149.677 149.677 0 82.665 67.013 149.677 149.677 149.678z" data-fill-palette-color="tertiary" fill="#ec9131" stroke="transparent"></path><ellipse rx="160.27418187383762" ry="160.27418187383762" cx="166.95227278524752" cy="166.95227278524752" fill="#ec9131" stroke="transparent" stroke-width="0" fill-opacity="1" data-fill-palette-color="tertiary"></ellipse></g><g transform="matrix(1,0,0,1,67.65175729616975,71.17305217166896)"><svg viewBox="0 0 198.60103097815553 191.55844122715712" height="191.55844122715712" width="198.60103097815553"><g><svg viewBox="0 0 198.60103097815553 191.55844122715712" height="191.55844122715712" width="198.60103097815553"><g><svg viewBox="0 0 198.60103097815553 191.55844122715712" height="191.55844122715712" width="198.60103097815553"><g><svg viewBox="0 0 198.60103097815553 191.55844122715712" height="191.55844122715712" width="198.60103097815553"><g><svg viewBox="0 0 198.60103097815553 191.55844122715712" height="191.55844122715712" width="198.60103097815553"><g><svg viewBox="0 0 198.60103097815553 191.55844122715712" height="191.55844122715712" width="198.60103097815553"><g transform="matrix(1,0,0,1,0,0)"><svg width="198.60103097815553" viewBox="1.9000000953674316 -26.149999618530273 28.200000762939453 27.19999885559082" height="191.55844122715712" data-palette-color="#ffffff"><path d="M22.45-21.95L22.45-21.95Q20.7-22.25 19.07-22.25 17.45-22.25 15.15-21.7L15.15-21.7Q14.4-18.55 14.4-15.55L14.4-15.55Q14.4-7.8 21.3-3.65L21.3-3.65Q25.9-6.7 29.6-11.25L29.6-11.25Q29.75-9.25 29.85-5.15L29.85-5.15Q26.15-2.25 22.3-0.6 18.45 1.05 12.7 1.05L12.7 1.05 11.55 1.05Q7.05-0.9 4.48-4.7 1.9-8.5 1.9-12.7L1.9-12.7Q1.9-18.3 6.5-22.23 11.1-26.15 19.85-26.15L19.85-26.15Q24.75-26.15 30.1-24.9L30.1-24.9Q29.3-21.75 28.1-18.95L28.1-18.95Q24.95-18.65 21.6-18.65L21.6-18.65Q22.1-20.05 22.45-21.95Z" opacity="1" transform="matrix(1,0,0,1,0,0)" fill="#ffffff" class="undefined-text-0" data-fill-palette-color="quaternary" id="text-0"></path></svg></g></svg></g></svg></g></svg></g><g></g></svg></g></svg></g></svg></g></svg></g><defs></defs></svg><rect width="333.90454557049503" height="333.90454557049503" fill="none" stroke="none" visibility="hidden"></rect></g></svg></g></svg>