<svg xmlns="http://www.w3.org/2000/svg" version="1.1" xmlns:xlink="http://www.w3.org/1999/xlink" xmlns:svgjs="http://svgjs.dev/svgjs" width="1000" height="1000" viewBox="0 0 1000 1000"><rect width="1000" height="1000" fill="#e8772e"></rect><g transform="matrix(0.7,0,0,0.7,149.57575834051954,415.2187071389076)"><svg viewBox="0 0 396 96" data-background-color="#e8772e" preserveAspectRatio="xMidYMid meet" height="242" width="1000" xmlns="http://www.w3.org/2000/svg" xmlns:xlink="http://www.w3.org/1999/xlink"><g id="tight-bounds" transform="matrix(1,0,0,1,0.23999956736321337,0.04606915386582955)"><svg viewBox="0 0 395.52 95.90786169226836" height="95.90786169226836" width="395.52"><g><svg viewBox="0 0 539.8882365153815 130.91506451506848" height="95.90786169226836" width="395.52"><g transform="matrix(1,0,0,1,144.3682365153816,36.964225016829744)"><svg viewBox="0 0 395.52 56.986614481409" height="56.986614481409" width="395.52"><g><svg viewBox="0 0 395.52 56.986614481409" height="56.986614481409" width="395.52"><g><svg viewBox="0 0 395.52 56.986614481409" height="56.986614481409" width="395.52"><g transform="matrix(1,0,0,1,0,0)"><svg width="395.52" viewBox="3.5 -29.450000762939453 204.38999938964844 29.450000762939453" height="56.986614481409" data-palette-color="#ffffff"><path d="M26.55 0L12.65 0Q9.1 0 7.1-1 5.1-2 4.3-4 3.5-6 3.5-8.95L3.5-8.95 3.5-20.1Q3.5-24.9 5.65-27.18 7.8-29.45 12.65-29.45L12.65-29.45 27.7-29.45Q31.15-29.45 32.98-29.08 34.8-28.7 34.8-28.3L34.8-28.3 33.8-24.15Q32.95-24.3 28.78-24.48 24.6-24.65 16.65-24.65L16.65-24.65 14.1-24.65Q10.1-24.65 10.1-21.1L10.1-21.1 10.1-8.35Q10.1-6.65 10.98-5.73 11.85-4.8 14.1-4.8L14.1-4.8 16.15-4.8Q24.45-4.8 29.03-4.98 33.6-5.15 34.7-5.35L34.7-5.35 36.75-2.05Q36.75-1.8 35.93-1.3 35.1-0.8 32.9-0.4 30.7 0 26.55 0L26.55 0ZM48.35 0L41.75 0 41.75-29.4 48.35-29.4 48.35-17.2 67.95-17.2 67.95-29.4 74.55-29.4 74.55 0 67.95 0 67.95-12.4 48.35-12.4 48.35 0ZM105.8 0L91.2 0Q87.7 0 85.7-1 83.7-2 82.87-4 82.05-6 82.05-8.95L82.05-8.95 82.05-20.5Q82.05-23.4 82.85-25.38 83.65-27.35 85.65-28.38 87.65-29.4 91.2-29.4L91.2-29.4 105.8-29.4Q109.3-29.4 111.27-28.38 113.25-27.35 114.07-25.38 114.9-23.4 114.9-20.5L114.9-20.5 114.9-8.95Q114.9-4.55 112.95-2.27 111 0 105.8 0L105.8 0ZM92.65-4.8L92.65-4.8 104.4-4.8Q106.25-4.8 107.27-5.75 108.3-6.7 108.3-8.35L108.3-8.35 108.3-21.1Q108.3-22.55 107.25-23.58 106.2-24.6 104.4-24.6L104.4-24.6 92.65-24.6Q90.85-24.6 89.75-23.65 88.65-22.7 88.65-21.1L88.65-21.1 88.65-8.35Q88.65-6.65 89.72-5.73 90.8-4.8 92.65-4.8ZM124.69 0L117.39 0 132.04-29.4 141.89-29.4 156.49 0 148.79 0 145.84-6.35 127.94-6.35 124.69 0ZM136.64-24.9L129.74-11.25 143.99-11.25 137.14-24.9 136.64-24.9ZM167.09 0L160.49 0 160.49-29.4 167.09-29.4 167.09 0ZM198.84 0L175.09 0 175.09-29.45 196.84-29.45Q201.54-29.45 203.69-27.58 205.84-25.7 205.84-23.05L205.84-23.05 205.84-21.55Q205.84-19.5 204.96-18.18 204.09-16.85 203.09-16.3L203.09-16.3Q205.29-15.6 206.59-13.88 207.89-12.15 207.89-9.35L207.89-9.35 207.89-8.45Q207.89-6.95 207.54-5.45 207.19-3.95 206.21-2.73 205.24-1.5 203.46-0.75 201.69 0 198.84 0L198.84 0ZM181.69-24.65L181.69-17.65 195.79-17.65Q197.54-17.6 198.39-18.53 199.24-19.45 199.24-20.85L199.24-20.85 199.24-21.35Q199.24-22.5 198.44-23.58 197.64-24.65 195.44-24.65L195.44-24.65 181.69-24.65ZM181.69-12.75L181.69-4.8 197.44-4.8Q199.34-4.8 200.31-5.75 201.29-6.7 201.29-8.35L201.29-8.35 201.29-9.25Q201.29-10.8 200.14-11.78 198.99-12.75 196.34-12.75L196.34-12.75 181.69-12.75Z" opacity="1" transform="matrix(1,0,0,1,0,0)" fill="#ffffff" class="undefined-text-0" data-fill-palette-color="primary" id="text-0"></path></svg></g></svg></g></svg></g></svg></g><g><svg viewBox="0 0 130.91506451506848 130.91506451506848" height="130.91506451506848" width="130.91506451506848"><g><svg></svg></g><g id="icon-0"><svg viewBox="0 0 130.91506451506848 130.91506451506848" height="130.91506451506848" width="130.91506451506848"><g><rect width="119.0357345868493" height="119.0357345868493" x="5.939664964109589" y="5.939664964109589" fill="#ffffff" data-fill-palette-color="accent"></rect><rect width="119.0357345868493" height="119.0357345868493" x="11.879329928219176" y="1.7763568394002505e-15" fill="#ffffff" opacity="0.5" data-fill-palette-color="accent"></rect></g><g transform="matrix(1,0,0,1,27.93908976181359,16.970471326027393)"><svg viewBox="0 0 75.0368849914413 96.97412186301369" height="96.97412186301369" width="75.0368849914413"><g><svg xmlns="http://www.w3.org/2000/svg" xmlns:xlink="http://www.w3.org/1999/xlink" version="1.1" x="0" y="0" viewBox="12.982999801635742 1 75.68599700927734 97.81300354003906" enable-background="new 0 0 100 100" xml:space="preserve" height="96.97412186301369" width="75.0368849914413" class="icon-s-0" data-fill-palette-color="background" id="s-0"><g fill="#e8772e" data-fill-palette-color="background"><polygon fill-rule="evenodd" clip-rule="evenodd" points="12.983,10.59 30.001,98.813 24.129,39.764 53.15,37.872 53.096,27.989    64.549,1 53.622,18.977  " fill="#e8772e" data-fill-palette-color="background"></polygon><polygon fill-rule="evenodd" clip-rule="evenodd" points="59.389,54.548 64.549,1.007 55.809,40.723 36.197,41.768 37.767,62.23    30.001,98.813 42.058,58.914  " fill="#e8772e" data-fill-palette-color="background"></polygon><polygon fill-rule="evenodd" clip-rule="evenodd" points="62.8,67.182 63.349,56.729 47.37,60.484 47.338,72.281 30.001,98.813    51.681,71.197  " fill="#e8772e" data-fill-palette-color="background"></polygon><polygon fill-rule="evenodd" clip-rule="evenodd" points="65.711,62.394 80.552,57.663 82.061,45.131 66.162,47.226  " fill="#e8772e" data-fill-palette-color="background"></polygon><polygon fill-rule="evenodd" clip-rule="evenodd" points="72.07,44.502 83.058,43.085 84.639,32.807 76.56,32.434 64.549,1    72.979,31.967  " fill="#e8772e" data-fill-palette-color="background"></polygon><polygon fill-rule="evenodd" clip-rule="evenodd" points="87.413,31.294 88.669,21.788 79.125,19.094 64.549,1 79.032,23.437    78.61,30.437  " fill="#e8772e" data-fill-palette-color="background"></polygon></g></svg></g></svg></g></svg></g></svg></g></svg></g><defs></defs></svg><rect width="395.52" height="95.90786169226836" fill="none" stroke="none" visibility="hidden"></rect></g></svg></g></svg>